<svg id="Layer_1" data-name="Layer 1" xmlns="http://www.w3.org/2000/svg" viewBox="0 0 1396.61 793.54"><defs><style>.cls-1{fill:#fff;}</style></defs><path class="cls-1" d="M279.15,323.43c-3.86-7.82-7.27-15.79-8.72-24.47-2.49-14.85-.18-29.07,5.64-42.81,9.27-21.86,23.71-40,40.91-56,22.07-20.61,47.36-36.43,74.35-49.74,14.46-7.13,27.41-16.27,37.23-29.33a56.65,56.65,0,0,0,7.53-13.78,65.27,65.27,0,0,0,17.48,19.17c10.69,7.67,23.07,11,35.71,13.63,9.22,1.89,18.64,2.74,27.68,5.55a3.3,3.3,0,0,0,2.67-.26c16.89-8.58,34.58-9.06,52.66-5,5.56,1.25,13.59-1.43,16.47-6.26s1.53-9.48-1.11-13.81c-1.82-3-4.15-5.68-6.25-8.51a27.72,27.72,0,0,1-4.72-9c-1.72-6.18.51-13.31,5.85-16.8,11.3-7.41,23.21-8,35.41-2.27,3.65,1.71,7,4,10.92,5.18,5.09,1.47,9.78.9,14.14-2.31,6-4.39,10.06-10.36,14.28-16.26,4.09-5.73,7.71-11.81,12.65-16.89,13-13.28,33.68-11.67,44.55,3.42a24.42,24.42,0,0,1,4.09,11.26,39,39,0,0,0,1.23,5.75,12.52,12.52,0,0,0,10,9.14c6.22,1.36,12.11.31,17.83-2.32,4.8-2.2,9.48-4.66,14.52-6.31,9.61-3.15,18.11-1.37,24.91,6.2,7.08,7.87,9.33,16.93,5.16,27-2,4.92-5.54,8.94-8.38,13.38-1.41-.44-1.34-1.67-1.72-2.51C777,107.2,767.31,103.33,756,108.18c-4.37,1.88-8.53,4.27-12.93,6.07-7.75,3.16-12.08.47-13.16-7.87-1.68-13-9.79-20.7-23-22.42-11.59-1.5-20.41,3-27.38,11.79-4,5.13-7.84,10.43-11.83,15.59a39.92,39.92,0,0,1-7.31,7.15c-3.63,2.8-7.55,3.09-11.75,1.69-3.07-1-5.66-3-8.5-4.49-9.21-4.85-18.34-4.66-27.06,1-7,4.56-8.77,13.91-4.54,21.58a58.33,58.33,0,0,0,6.06,8.25,29.64,29.64,0,0,1,4.1,6.57c1.92,4.36,1.14,8.26-1.89,11.83-2.54,3-5.85,3.27-9.37,2.6-5.07-1-10-2.62-15.21-3-9.75-.7-19.25.23-28.29,4.18-4.59,2-8.41,4.92-10.34,9.76-1.62,4.07-.85,8.18,0,12.23,2.14,9.89,8.08,17.58,14.76,24.77,6.13,6.6,12.43,13,18.59,19.62a14.12,14.12,0,0,1,4,8.54c.45,5.77-4,10.1-10.83,10.79-5.37.55-10.48-.88-15.62-2.06a51.71,51.71,0,0,0-9.47-1.64c-12-.48-20.43,9.34-18.36,21.22,2.28,13.06,8.93,23.92,16.93,34.13,8.37,10.68,17.94,20.35,26.17,31.16,4.08,5.35,8.23,10.65,12.38,15.94a29.51,29.51,0,0,1,5.09,9.19c1.6,5,.19,9.17-4.16,12.2A20.32,20.32,0,0,1,583,378.06c-1.34.11-2.69.17-4,.36-8.73,1.24-12.91,6-13.28,14.92-.26,6,2.27,10.86,5.6,15.45,12.36,17,29.29,25.77,50.16,27,7.23.41,14.51.17,21.59,2,1.6.42,3.15,1,4.71,1.59,3.31,1.23,4.33,3.83,4.31,7.14a6.17,6.17,0,0,1-4.63,6.26c-3.15,1-6.42,1.61-9.64,2.34-2.5.57-4.51,1.68-5,4.4s1.16,4.41,3.26,5.8c4.84,3.19,10.25,3.78,15.81,3.31,5.15-.44,10.34-.87,15.42-1.81,15.43-2.88,27.1,3.2,36.39,15,3.78,4.78,7.65,9.57,9.64,15.47.53,1.58,1.62,1.78,2.9,1.57,4.85-.76,8.12.91,10.25,5.53,1.08,2.35,3.27,4.2,5.32,6.71-3.62,0-6.85,0-10.09,0-3.93,0-7.87-.05-11.81-.12-1,0-2,.3-2.46-1.19-2.18-7.28-7.37-12.56-12.2-18.08-8.12-9.56-18-16.21-30.8-17.14-11.12-.8-22,2.37-33,2.71-6.6.2-13-.38-18.81-4-1.81-1.13-3.35-2.38-3.41-4.81-.07-3.43,1.59-5.4,5.52-6.33,4.12-1,8.42-1.16,12.42-2.64,2.85-1.06,5.1-2.79,5.22-6.22.14-4.16-1.47-7.2-4.82-8.58a51.31,51.31,0,0,0-6.21-1.93c-8.3-2.16-16.83-2.08-25.28-2.28a83.6,83.6,0,0,1-44-13.31c-12.21-7.82-21.57-18-25.54-32.34-.69-2.5-1.89-1.73-3.4-1-17.64,8.39-30.68,21.52-39.9,38.59-2,3.76-4,7.57-6.1,11.65-1-1.34-1.66-2.35-2.4-3.33a91.5,91.5,0,0,0-30.42-26c1.47-2.61,3.83-4.32,6.25-5.9a180.81,180.81,0,0,0,37.63-32.21c17.44-19.85,29.92-42.16,33-68.88,3.85-33.15-2.93-64-20.41-92.46a118.24,118.24,0,0,0-45.37-43.15c-14.65-7.87-25.49-19-29.92-35.49a17.6,17.6,0,0,0-1.19-2.64c-1.07.68-1,1.61-1.24,2.36a61.51,61.51,0,0,1-25.15,32.54q-44.22,28.94-62.68,78.42a118.13,118.13,0,0,0-6.6,59.82c3.91,25.92,15.48,48.26,32.12,68.22,5.11,6.13,11.12,11.36,16.65,17.06-1.65.35-3-.54-4.45-1.06A254,254,0,0,1,348.63,381c-17.25-8.28-33.44-18.21-47.65-31.13A121.17,121.17,0,0,1,279.15,323.43Z"/><path class="cls-1" d="M782,458.4c-15.19,1.16-30.55.88-45.26,5.9a36.33,36.33,0,0,0-13,7.16c-.38-3.09,1.14-5,2.61-6.9,2.47-3.09,5.91-4.81,9.49-6.27,9.73-4,19.94-6.24,30.11-8.63a56,56,0,0,0,16.2-6.13c4.22-2.52,5.25-6.45,4.75-11-.46-4.14-3.63-5.6-7.06-6.41-3.62-.86-7.36-1.18-11-2-5.5-1.23-6.66-5.12-2.81-9.32,3.42-3.72,8.07-5,12.82-5.64a160.6,160.6,0,0,0,50.49-15.64,33.51,33.51,0,0,0,10.79-8.26,17.45,17.45,0,0,0,4.21-9.18c.81-6.45-1.19-10.36-7.18-12.9-4-1.69-8.19-2.89-12.3-4.31a21.44,21.44,0,0,1-6.31-3.28c-3.57-2.76-4.25-5.77-2.19-9.81a23,23,0,0,1,4-5.09,96.33,96.33,0,0,0,24.69-48.24,42.19,42.19,0,0,0-1.75-22.05,13.81,13.81,0,0,0-9.78-9.13c-4.81-1.44-9.8-1.59-14.76-1.87-8.38-.48-10.84-4.28-7.56-12.1,2.76-6.59,6.14-12.89,9.38-19.26,5.26-10.36,10.26-20.84,11.45-32.61.9-9,.69-17.81-3.53-26.09-5.51-10.84-16.65-14.93-27.78-10-4.44,2-8.66,4.42-13.07,6.47-3.41,1.57-7.15,3.29-10.53.45-3.13-2.63-2.56-6.54-2-10.14.85-5.75,4.11-10.56,6.4-15.75.49-1.12,1.32-1,2.31-.93,8,.83,15.57-.93,23.12-3.51,8.78-3,18-3.75,27.23-4.35s18.2-.88,27.29.39c11.9,1.67,20.73,7.41,25.18,18.91.67,1.72,1.33,1.87,2.93,1.18,11.41-4.93,23.2-8.85,35-12.74,16.66-5.48,29.1-16.23,38-31.18.26-.45.51-.9.81-1.32.1-.15.32-.22.64-.43A60.52,60.52,0,0,0,978.85,133c9.65,10.22,21.63,16.8,34.3,22.49,41.06,18.46,70.58,48.39,87.58,90.1,9.41,23.06,11.44,46.87,4.07,71.12-4.34,14.29-12.94,25.79-23,36.41-19.34,20.45-42.86,34.68-68.33,46a196.37,196.37,0,0,1-26,9.56c2.7-1.91,5.43-3.79,8.1-5.74,19.64-14.36,36.1-31.59,48.18-52.86,12.83-22.59,16.82-46.91,14.49-72.52a140.06,140.06,0,0,0-23.94-67.11,117.41,117.41,0,0,0-40.47-37.38c-8.93-4.95-17.38-10.51-23.45-19a55.36,55.36,0,0,1-7.54-15.25c-.54-1.65-1.15-3.27-1.72-4.89-1.06.26-1,1-1.21,1.48-4.62,14.64-13.7,25.73-26.43,34.16-31.49,20.85-53.08,49.36-64.16,85.42-11.45,37.27-4.49,72,16.29,104.41a153.23,153.23,0,0,0,39.19,41.16,110.39,110.39,0,0,1,25.08,25.23c1.28,1.81,1.2,2.83-.42,4.36a93.56,93.56,0,0,0-15.84,20.24c-1.2,2-1.71,2.61-3.36.22A334.58,334.58,0,0,0,902.56,416a30,30,0,0,0-2.31-2,3.79,3.79,0,0,0-.52-1.09,154.29,154.29,0,0,0-15.51-14.29,2.94,2.94,0,0,0-3.44-.22c-8.63,3.8-17.62,6.59-26.61,9.38a128.72,128.72,0,0,1-30.67,5.9c-5.11.29-10.35.86-14.72,4.13a7.1,7.1,0,0,0-3.17,6.68c.32,2.89,2.33,4.59,4.88,5.49a26.76,26.76,0,0,0,5.16,1c3.88.56,7.82.82,11.56,2.13s6.4,3.39,6.78,7.6c.34,3.85-1.26,6.78-4.23,9.12-3.72,2.94-8.21,3.83-12.66,4.72C805.51,456.84,793.72,457.3,782,458.4Z"/><path class="cls-1" d="M279.15,323.43A121.17,121.17,0,0,0,301,349.9c14.21,12.92,30.4,22.85,47.65,31.13a254,254,0,0,0,24.28,10.32c1.43.52,2.8,1.41,4.45,1.06l-.05,0,.9.67c20.59,14.67,39.11,31.08,46.67,56.89a10.64,10.64,0,0,0,2.18-4.57c2.08-6.19,4.18-12.37,7.43-18.06,2.66-4.64,5.44-9.23,9.76-12.59a91.5,91.5,0,0,1,30.42,26c.74,1,1.43,2,2.4,3.33,2.13-4.08,4.07-7.89,6.1-11.65,9.22-17.07,22.26-30.2,39.9-38.59,1.51-.72,2.71-1.49,3.4,1,4,14.34,13.33,24.52,25.54,32.34a83.6,83.6,0,0,0,44,13.31c8.45.2,17,.12,25.28,2.28a51.31,51.31,0,0,1,6.21,1.93c3.35,1.38,5,4.42,4.82,8.58-.12,3.43-2.37,5.16-5.22,6.22-4,1.48-8.3,1.67-12.42,2.64-3.93.93-5.59,2.9-5.52,6.33.06,2.43,1.6,3.68,3.41,4.81,5.78,3.62,12.21,4.2,18.81,4,11.06-.34,21.91-3.51,33-2.71,12.83.93,22.68,7.58,30.8,17.14-25.1,14.93-50.17,29.94-78.93,37-12.92,3.19-26,5.27-39.25,2.32a27.25,27.25,0,0,1-12.87-6.53c-3.83-3.55-4.5-8.22-3.77-13.14.92-6.17,3.16-12,4.92-17.93,3.65-12.33-1.71-20.11-15.48-23.39-3.94-.94-7.55.06-11.09,1.75-11.43,5.45-21.85,12.59-32.44,19.46-13.9,9-28,17.73-44,22.73-10,3.14-20.3,5.07-30.83,4.53-14.91-.77-26.44-7.51-32.95-21.17-4.87-10.23-3.64-20.71.84-30.9,1.29-2.94,2.75-5.82,2-9.21-1.41-6.31-6.1-9.41-11.71-10.66-9.14-2.05-18.06-.67-26.61,3.27-7.42,3.41-14.25,8.06-22.18,10.37-10.77,3.13-21.08,2.76-30.34-4.36-11.91-9.16-13-23.77-2.61-34.61a63.71,63.71,0,0,0,6.15-7c4-5.57,3.07-10.83-2.2-15.18C304,392.6,295,388.23,286,383.71,274.68,378,262.84,373.07,252.85,365c-5.56-4.5-10.29-9.62-11.33-17.17-1-6.84,1-12.46,6.79-16.47,6.77-4.67,14.53-6.31,22.5-7.24C273.57,323.77,276.37,323.64,279.15,323.43Z"/><path class="cls-1" d="M634,282.72c0-20,.05-40-.06-60,0-2.6.68-3.29,3.25-3.25,8.6.17,17.2.14,25.79,0,2.21,0,2.78.64,2.77,2.8-.09,15.11,0,30.23-.11,45.35,0,2.56.66,3.31,3.26,3.3q28.27-.17,56.55,0c2.44,0,3.14-.65,3.12-3.11-.11-15.12,0-30.23-.1-45.35,0-2.24.45-3,2.87-3,8.8.15,17.61.1,26.41,0,1.84,0,2.5.44,2.5,2.41q-.09,60.87,0,121.76c0,2.12-.69,2.6-2.66,2.58-8.81-.09-17.61-.11-26.41,0-2.29,0-2.71-.8-2.7-2.86.07-17.29,0-34.58.09-51.88,0-2.43-.62-3.12-3.08-3.11q-28.29.17-56.56,0c-2.54,0-3.31.6-3.29,3.23.12,17.09,0,34.17.13,51.26,0,2.82-.8,3.43-3.48,3.38-8.28-.18-16.57-.22-24.85,0-3,.09-3.51-1-3.5-3.67C634.08,322.69,634,302.7,634,282.72Z"/><path class="cls-1" d="M953,349.56c-13.09-.29-26-2-38.93-4-2.1-.32-3-1-2.89-3.35.2-5.37.19-10.77,0-16.15-.08-2.56.77-2.58,2.81-1.88,8.8,3.06,17.63,6.08,27,7,7.84.78,15.69,1.35,23.51-.23a21.45,21.45,0,0,0,10.26-4.86c7.67-6.83,7.24-17.12-1.06-23.19-5-3.69-10.67-6.34-16.33-8.93-10.54-4.83-21.16-9.53-30.72-16.2-8.31-5.79-14.48-13-15.51-23.58-1.26-13,5-22.24,15.23-29.23,8.12-5.53,17.43-7.58,27-8.26,16.13-1.15,32,.85,47.9,3.6,1.48.25,2.1.85,2.07,2.43-.08,5.38-.09,10.77,0,16.15,0,2-.73,1.88-2.23,1.43-8.94-2.65-17.94-5.12-27.24-6.09-7.64-.8-15.34-1.17-22.6,2.14-3.9,1.77-7.12,4.39-8.2,8.75-1.34,5.38.94,9.53,5.06,12.77s8.77,5.49,13.46,7.7c12.26,5.78,24.75,11.1,36.15,18.57,9.71,6.37,15.78,14.91,16,26.8.27,13.24-6.66,22.51-17.26,29.36-8.67,5.61-18.58,7.4-28.64,8.39C962.94,349.23,958,349.3,953,349.56Z"/><path class="cls-1" d="M782,458.4c11.72-1.1,23.51-1.56,35.1-3.85,4.45-.89,8.94-1.78,12.66-4.72,3-2.34,4.57-5.27,4.23-9.12-.38-4.21-3.14-6.32-6.78-7.6s-7.68-1.57-11.56-2.13a26.76,26.76,0,0,1-5.16-1c-2.55-.9-4.56-2.6-4.88-5.49a7.1,7.1,0,0,1,3.17-6.68c4.37-3.27,9.61-3.84,14.72-4.13a128.72,128.72,0,0,0,30.67-5.9c9-2.79,18-5.58,26.61-9.38a2.94,2.94,0,0,1,3.44.22,154.29,154.29,0,0,1,15.51,14.29,3.79,3.79,0,0,1,.52,1.09c-.64,10.31-1.54,20.53-6,30.15a76.07,76.07,0,0,1-23.67,28.92c-7.21,5.47-14.85,10.46-23.45,13.12-13.75,4.24-27.79,6.53-41.74.27a15.41,15.41,0,0,1-8-7.88c-1-2.26-2.07-4.51-3.09-6.77C791.68,466,787.81,461.31,782,458.4Z"/><path class="cls-1" d="M747.32,597c-2.16,1.89-4.27,3.84-6.5,5.64-2,1.64-2.2,2.83-.34,5.06,10.36,12.4,9,31.93-3,42.32-8,7-17.93,8.54-28.22,8.18a44.35,44.35,0,0,1-16.6-3.49c-1-.46-2-.7-2.68.43-2.07,3.38-5.31,3.39-8.69,3.19-1.81-.1-3.63,0-6.21,0,2.56-2.65,4.51-4.89,6.7-6.86,1.87-1.7,2-2.83.24-4.94-9.4-11.36-9.22-28.93.25-39.73,6-6.88,14.1-9.57,22.83-10.49,8.21-.86,16.34-.41,24,3.07,1.15.52,2.18.79,3-.46,1.86-3,4.7-3.24,7.84-3,2.21.16,4.45,0,6.68,0C746.86,596.3,747.09,596.66,747.32,597Zm-18.49,18c-9.74,10.07-19.27,20-28.85,29.78-1.39,1.42-.31,1.83.67,2.47,5.83,3.77,16.35,3.58,22.15-.42C731.38,641,734.35,625.9,728.83,615.05Zm-38,12.14a29.92,29.92,0,0,0,1.81,9.84c.65,1.57,1.14,1.87,2.47.47q13.33-14,26.84-27.93c1.44-1.49,1-2.09-.6-2.83-4.61-2.16-9.41-3.14-14.44-2C696.73,606.94,690.91,615,690.84,627.19Z"/><path class="cls-1" d="M282,657c5.59-8.15,10.78-15.73,16-23.3,7.74-11.26,15.54-22.48,23.2-33.79a5,5,0,0,1,4.71-2.6q21,.16,42,0c2.24,0,3.31.26,3.2,2.94-.22,5.34,0,5.34-5.43,5.34-7.56,0-15.13.07-22.69,0-1.9,0-2.51.45-2.43,2.39.16,3.83.15,7.67,0,11.5-.08,2,.45,2.64,2.54,2.59,6.52-.13,13.05,0,19.58-.09,2.14,0,3.1.27,3,2.79-.18,5.61,0,5.61-5.73,5.61s-11.19.07-16.79,0c-1.91,0-2.72.32-2.63,2.48.18,4.55.14,9.12,0,13.67-.05,1.82.58,2.22,2.29,2.2,9.22-.07,18.44.05,27.66-.09,2.4,0,2.95.7,2.9,3-.12,5.46,0,5.46-5.34,5.46-13.05,0-26.11-.1-39.16.08-2.87,0-3.49-.83-3.31-3.46.23-3.3,0-6.62.08-9.94,0-1.5-.25-2.23-2-2.2-5.9.11-11.81.09-17.71,0-1.52,0-2.18.79-2.91,1.86-2.6,3.86-5.31,7.66-7.86,11.55a4,4,0,0,1-4,2.14C288.36,656.85,285.56,657,282,657Zm27.64-23.28c5.18,0,9.71-.06,14.22,0,1.68,0,1.77-.84,1.76-2.12,0-5.58,0-11.16,0-16.74,0-1.12.34-2.33-.48-3.68C320,618.65,315.07,625.86,309.68,633.7Z"/><path class="cls-1" d="M105.9,627.07c0-9,.07-18-.05-27,0-2.17.57-2.79,2.75-2.76,10.87.15,21.75,0,32.62.22,8.35.19,16.27,2.08,22.29,8.5,8.23,8.76,9.23,19.21,6,30.12-3.36,11.22-11.42,17.6-22.85,19.83a58.76,58.76,0,0,1-10.82,1c-9.11.09-18.22,0-27.33.08-2.08,0-2.63-.61-2.61-2.63C106,645.29,105.9,636.18,105.9,627.07Zm14.9-.08c0,6.41,0,12.82,0,19.23,0,1.74.49,2.35,2.27,2.29,4.24-.14,8.49,0,12.72-.14,9.66-.38,15.31-4.4,18.14-12.75a26.69,26.69,0,0,0,1.42-11C154.55,616.24,150,607.17,138,606c-4.76-.46-9.51-.23-14.25-.48-2.26-.13-3.06.42-3,2.85C120.92,614.58,120.8,620.78,120.8,627Z"/><path class="cls-1" d="M1047.81,596c9.85.1,19.12,2,26.81,8.74,14.24,12.52,13.34,42.64-10.06,50.72-12.92,4.46-26,4.43-38.25-2.16-11.41-6.12-15.61-16.57-14.66-28.94s7.48-21.24,19.39-25.66A45.33,45.33,0,0,1,1047.81,596Zm20.32,31.57c0-6.06-1-9.8-3.66-14.38-6.82-11.68-25.21-12.3-32.79-1.1a27.79,27.79,0,0,0,0,30.15c1.85,2.71,4.1,5.07,7.21,6.11,11.71,3.94,24.11,1.53,28.37-13.92A24,24,0,0,0,1068.13,627.57Z"/><path class="cls-1" d="M1325.4,637.86c0-11.43,0-22,0-32.47,0-2.58-.85-5.95.44-7.52s4.87-.45,7.43-.5c4.13-.08,4.13,0,4.13,4,0,17.38-.05,34.77,0,52.15,0,2.54-.42,3.26-3.27,3.59-7.31.84-12.13-1.6-16.49-7.72-7.29-10.27-15.64-19.8-23.54-29.64-.71-.88-1.45-1.72-2.19-2.6-1.22.69-.66,1.73-.67,2.52,0,11.49-.1,23,0,34.46,0,2.39-.66,3.06-2.95,2.87-2.86-.25-6.69.88-8.39-.57-2-1.69-.61-5.63-.62-8.57-.08-15.94,0-31.88-.09-47.81,0-2.12.57-2.54,2.69-2.82,7.55-1,12.76,1.37,17.32,7.86,7.25,10.31,15.63,19.81,23.53,29.65C1323.47,635.56,1324.14,636.35,1325.4,637.86Z"/><path class="cls-1" d="M580.58,626.7c0-8.9.08-17.81-.06-26.71,0-2.25.67-2.81,2.79-2.69a80.5,80.5,0,0,0,9.32,0c2.23-.13,3,.4,3,2.84-.2,6.21,0,12.43-.11,18.64,0,1.93.36,2.69,2.51,2.65q12.27-.2,24.54,0c2,0,2.4-.65,2.37-2.49-.1-6.32,0-12.63-.07-19,0-1.88.28-2.81,2.48-2.69,3.52.19,7.05.11,10.56,0,1.46,0,2,.37,2,1.9q-.06,27.94,0,55.9c0,1.57-.63,1.9-2,1.88-3.52-.07-7-.13-10.57,0-2,.08-2.43-.67-2.4-2.51.08-7.45,0-14.91.07-22.36,0-1.86-.4-2.48-2.38-2.46q-12.27.18-24.54,0c-2.14,0-2.53.71-2.5,2.64.1,7.34,0,14.7.09,22,0,2-.48,2.74-2.57,2.64a96.93,96.93,0,0,0-9.94,0c-2.16.12-2.54-.74-2.52-2.68C580.63,645.13,580.58,635.91,580.58,626.7Z"/><path class="cls-1" d="M263.76,657H247c-1.54,0-2-1.35-2.7-2.3-5-6.73-9.94-13.5-14.91-20.25-1-1.41-7.49-2.59-8.86-1.61-.82.58-.45,1.52-.45,2.29,0,6.42-.1,12.84,0,19.26,0,2-.43,2.77-2.55,2.66-3.1-.17-6.21-.12-9.31,0-1.65.06-2.13-.51-2.13-2.13q.08-27.79,0-55.59c0-1.13,0-2,1.58-2,10.76.24,21.57-.67,32.29.51,8.06.88,13,5.19,14.27,11.33,1.36,6.44-2.16,13.52-8.57,17.6-1.49,1-4.23,1-4.24,2.86,0,1.36,2,2.74,3.12,4.09q8.88,10.57,17.77,21.16C262.75,655.4,263.09,656,263.76,657ZM220,614.82q0,3.88,0,7.76c0,.82-.16,1.73,1.13,1.73,4.56,0,9.16.19,13.33-2.11a10.16,10.16,0,0,0,5-10c-.59-3.51-2.8-5.28-7.52-6.19-3.39-.66-6.81-.35-10.22-.51-1.41-.06-1.76.53-1.73,1.82C220.06,609.85,220,612.34,220,614.82Z"/><path class="cls-1" d="M942.06,625.46c7.67-8.32,15.29-16.35,22.59-24.66,2.28-2.59,4.54-3.86,8-3.5,2.34.25,4.72.05,7.76.05-4.56,5-8.68,9.59-12.82,14.14-3.13,3.45-6.17,7-9.44,10.3-1.62,1.64-1.74,2.63-.08,4.43,8.7,9.43,17.25,19,25.85,28.55.48.52.92,1.08,1.84,2.18-6.18,0-11.8,0-17.41,0-1.36,0-2-1.44-2.77-2.33q-10-11.07-19.89-22.22c-1.16-1.3-2.34-2.58-3.52-3.89-1.23.68-.72,1.73-.73,2.53,0,7.77-.11,15.54,0,23.3,0,2.22-.65,2.85-2.79,2.72a66.47,66.47,0,0,0-8.7,0c-2.33.17-3-.57-2.95-2.92.1-16.26,0-32.52.07-48.78,0-2.56-1.12-5.88.49-7.47s4.93-.45,7.5-.48c6.33-.07,6.33,0,6.33,6.46,0,6.11,0,12.22,0,18.33C941.39,623.14,941.05,624.2,942.06,625.46Z"/><path class="cls-1" d="M1198.2,627c0-8.9.07-17.8,0-26.7,0-2.19.35-3,2.83-3q20.17.21,40.37,0c2.48,0,2.87.79,2.81,3-.12,5.32,0,5.32-5.38,5.32-7.66,0-15.33.06-23,0-2,0-2.75.39-2.65,2.53.18,3.72.18,7.46,0,11.17-.1,2.15.49,2.84,2.72,2.79,6.72-.15,13.46.05,20.18-.12,2.4-.06,2.94.7,2.89,3-.15,5.44,0,5.44-5.32,5.44-6.11,0-12.22.08-18.32,0-1.92,0-2.17.74-2.14,2.36.09,4.55.15,9.11,0,13.66-.07,2.05.71,2.35,2.5,2.33,9.32-.08,18.64,0,27.95-.09,2.29,0,3,.5,2.94,2.88-.15,5.55,0,5.55-5.49,5.55-13.26,0-26.51-.06-39.76,0-2.37,0-3.2-.48-3.15-3C1198.31,645,1198.2,636,1198.2,627Z"/><path class="cls-1" d="M509.26,658.21a111.46,111.46,0,0,1-14.81-1.53c-.69-.13-1.95-.34-2-.56a71.56,71.56,0,0,1-.09-9.26c.08-1,1.41-.22,2.06,0a54,54,0,0,0,17,3.12,19.92,19.92,0,0,0,8.52-1.26c2.48-1.09,4.4-2.81,4.8-5.64.42-3-1-5.13-3.41-6.79-3.61-2.48-7.68-4-11.61-5.85a60.29,60.29,0,0,1-11.31-6.4c-9.35-7.1-8.49-18.93,1.8-24.69,4.85-2.72,10.16-3.36,15.59-3.36a97,97,0,0,1,17.57,1.79c2,.37,2.4,1.22,2.4,3.05,0,6.76.07,6.71-6.51,5.1-5.43-1.33-10.91-2.45-16.53-1.06-2.78.69-5.12,2.07-5.73,5-.65,3.13,1.44,5,3.82,6.47,4.55,2.91,9.72,4.56,14.46,7.1a86.82,86.82,0,0,1,7.82,4.42c10.7,7.26,9.78,20.86-1.76,26.83C526,657.49,518.13,658.74,509.26,658.21Z"/><path class="cls-1" d="M864.48,658.34a158.21,158.21,0,0,1-17.57-1.65c-1.53-.25-2.15-.75-2.06-2.34.16-2.57-.82-6,.49-7.46s4.43.92,6.79,1.49a51.42,51.42,0,0,0,16.3,1.42,13.31,13.31,0,0,0,4.76-1.28c5.56-2.65,6.1-8.54,1.1-12.11-3.91-2.79-8.42-4.39-12.72-6.42a57.81,57.81,0,0,1-10.46-6c-8.86-6.73-8.54-17.62.7-23.86a23.8,23.8,0,0,1,11.35-3.83,80,80,0,0,1,23.15,1.55c1.61.32,2.31.86,2.17,2.58-.19,2.26.74,5.44-.42,6.56-1.35,1.3-4.11-.72-6.28-1.17-5.39-1.1-10.74-2.31-16.26-.93-2.77.69-5.1,2.09-5.74,5-.69,3.15,1.49,5,3.83,6.48,3.49,2.25,7.38,3.72,11.12,5.46a97.54,97.54,0,0,1,10.41,5.5c5.41,3.37,8.75,7.92,8.17,14.56-.55,6.42-4.51,10.51-10,13.22C877.22,658.13,870.53,658.15,864.48,658.34Z"/><path class="cls-1" d="M450.14,711.94c-1.38,1.47-2.66,3-4.16,4.37s-1.28,2.25-.11,3.76c7.26,9.38,6.22,22.93-2.36,30.32-5.39,4.63-12,5.85-18.85,5.82A35.05,35.05,0,0,1,411.89,754c-.75-.29-1.61-1-2.25-.1-2.67,3.78-6.52,1.93-10.91,2.5,2-2.15,3.4-3.71,4.9-5.15,1.05-1,1.37-1.67.27-3-5.83-7.2-6.49-15.27-3.17-23.63s10.42-11.62,18.76-12.77a33.3,33.3,0,0,1,17.68,1.92c.73.31,1.61,1,2.24,0C442.24,709.76,446.27,711.92,450.14,711.94Zm-12.88,13.37-21.32,22.15c5,4,13.2,4,18,.14C439.42,743.09,441.09,732.56,437.26,725.31Zm-25.11,17c6.87-7.18,13.49-14.14,20.17-21,1.17-1.21.6-1.61-.53-2.15A15.2,15.2,0,0,0,421,717.86C411.58,720.43,407.23,732.16,412.15,742.32Z"/><path class="cls-1" d="M431.59,597.35c10.05,0,20.1.07,30.15-.05,2.24,0,2.75.65,2.71,2.78-.11,5.5,0,5.5-5.53,5.5s-11.2.2-16.78-.08c-2.95-.16-3.31.92-3.29,3.48.11,15,0,30,.1,45.06,0,2.22-.39,3.17-2.85,3a77.36,77.36,0,0,0-9.63,0c-2.12.11-2.56-.67-2.55-2.66.08-15.22,0-30.45.11-45.67,0-2.67-.74-3.25-3.27-3.17-6.52.18-13.05,0-19.58.11-2.17,0-2.81-.54-2.76-2.74.1-5.54,0-5.54,5.51-5.54Z"/><path class="cls-1" d="M770.34,658.83a61,61,0,0,0,9.67,1.73c7.9.61,11.2-2.25,11.23-10.16.07-16.46.1-32.92,0-49.39,0-2.89.51-4,3.63-3.73a93.69,93.69,0,0,0,9.63.06c1,0,1.79.09,1.77,1.46-.18,18,.63,36-.4,54-.52,9.16-5.35,13.61-14.67,15.38-6.39,1.21-12.78.68-19.15-.4-1.36-.22-1.7-.84-1.67-2C770.38,663.59,770.34,661.43,770.34,658.83Z"/><path class="cls-1" d="M1119,627c0-9,.08-18-.06-27,0-2.24.65-2.83,2.78-2.7a67.72,67.72,0,0,0,9,0c2.51-.18,3.31.46,3.28,3.15-.14,15,0,30-.13,45,0,2.64.71,3.24,3.25,3.19,8.7-.17,17.4,0,26.1-.12,2.27,0,3,.49,3,2.9-.14,5.53,0,5.53-5.58,5.53-12.73,0-25.48-.11-38.21.08-3,0-3.54-.92-3.49-3.64C1119.07,644.62,1119,635.82,1119,627Z"/><path class="cls-1" d="M564.25,733.8V714.87c0-1.23-.27-2.47,1.77-2.4,8.89.28,17.81-.54,26.67.51,11.39,1.34,18.32,8.87,18.35,19.65,0,11.77-7.28,20.61-18.47,22-8.86,1.12-17.78.38-26.67.6-1.83,0-1.65-1.07-1.65-2.22Q564.27,743.43,564.25,733.8Zm10.7-.2c0,4.45,0,8.9,0,13.35,0,1.54.31,2.26,2,2.18,2.79-.14,5.59,0,8.38-.11,5.06-.28,9.68-1.55,12.18-6.57,2.63-5.27,3.08-10.68.63-16.15a11.76,11.76,0,0,0-8.47-7.07c-4.3-1-8.66-.64-13-.8-1.7-.07-1.77.85-1.76,2.13C575,724.9,575,729.25,575,733.6Z"/><path class="cls-1" d="M877.58,756.23c-6.5-.1-13.47-1.3-19-6.62-11.57-11.19-7-31.35,8.24-36.39a35.91,35.91,0,0,1,22.88,0c9.36,3.06,14.88,11.33,14.55,21.45s-6.22,17.46-15.79,20.19A40.59,40.59,0,0,1,877.58,756.23Zm.58-38.82c-8.94.05-14.64,6.45-14.63,16.46s5.9,16.58,15,16.47c8.8-.11,14.54-6.73,14.47-16.66S887.16,717.37,878.16,717.41Z"/><path class="cls-1" d="M493.59,726.37v22.86c0,6.71,0,6.66-6.88,6-1.38-.13-1.74-.64-1.74-1.9q0-19.56,0-39.11c0-1.36.52-1.82,1.83-1.78,2.07.07,4.15.12,6.21,0,1.55-.1,2.17.94,2.94,1.89l21.33,26.27c1.22-.64.68-1.7.68-2.5,0-7.55.11-15.11,0-22.66,0-2.17.33-3.1,2.82-3,5.83.14,5.83,0,5.83,5.83,0,11.38-.07,22.76.06,34.14,0,2.38-.72,2.69-2.93,2.94-4.85.55-8-1.18-10.85-5.12-5.43-7.42-11.46-14.4-17.25-21.56C495.14,728.05,494.59,727.49,493.59,726.37Z"/><path class="cls-1" d="M808.13,733c3,1.1,5.66,1.64,7.92,3.15,3.54,2.37,5.77,5.48,5.08,9.88s-3.58,6.85-7.57,8.21c-2.79,1-5.73.93-8.61,1-5.49.13-11,0-16.47.09-1.81,0-2.55-.38-2.54-2.38.09-12.73.06-25.47,0-38.21,0-1.51.3-2.25,2-2.21,6.42.14,12.84.12,19.26.23a15.84,15.84,0,0,1,5.48,1c3.53,1.37,6,3.8,6.41,7.66s-1.7,6.54-4.76,8.47A68,68,0,0,1,808.13,733Zm-11.84,9.62c0,1.44.1,2.89,0,4.32-.16,1.78.52,2.32,2.26,2.24a41.62,41.62,0,0,0,7.06-.6c2.16-.48,3.83-1.64,4.32-3.89a5.46,5.46,0,0,0-2-5.51,12.53,12.53,0,0,0-6.08-2.85c-5.18-1.06-5.55-.74-5.55,4.44Zm0-18.06c0,6.26,1.48,7.23,7.52,4.91.19-.07.39-.13.58-.21a6.25,6.25,0,0,0,3.88-6.68c-.59-3.1-3-3.63-5.57-3.87C796.29,718.05,796.29,718.08,796.29,724.51Z"/><path class="cls-1" d="M980.07,755.23c-4.39,0-8-.07-11.57,0-1.56,0-2.17-1-2.89-2q-5-6.88-10-13.8c-1-1.41-4.94-2.37-6.4-1.61-1,.51-.6,1.44-.61,2.18,0,4.25-.1,8.49,0,12.73,0,1.86-.47,2.48-2.43,2.5-7.69.1-7.69.18-7.69-7.4,0-10.76.06-21.53-.05-32.29,0-2.3.39-3.28,3-3.16,5.06.23,10.14.05,15.21.08,1.76,0,3.53.06,5.28.24,6.2.65,10,3.55,11.08,8.29s-1.51,10.14-6.8,12.73c-3,1.45-2.23,2.41-.63,4.25C970.28,743.49,974.89,749.07,980.07,755.23ZM948.53,725c0,7.44,1.08,8.28,8.08,6.22,3.91-1.16,6.15-4.15,5.77-7.72-.33-3-2.44-4.49-6.89-4.84C948.53,718.06,948.53,718.06,948.53,725Z"/><path class="cls-1" d="M754,755.23c-4.35,0-7.95-.07-11.55,0-1.56,0-2.15-1-2.87-2-3.29-4.52-6.75-8.93-9.83-13.59-1.83-2.78-4.3-1.86-6.63-1.76-1.16,0-.69,1.32-.7,2,0,4.25-.14,8.5,0,12.74.09,2.14-.69,2.54-2.65,2.55-7.42,0-7.42.07-7.42-7.38,0-10.77.06-21.54,0-32.31,0-2.31.4-3.27,3-3.16,5.06.23,10.15.06,15.22.08,1.56,0,3.11.06,4.66.18,6.7.56,10.84,3.59,11.84,8.63.93,4.7-2,10.08-7.44,12.77-2.41,1.2-1.75,2-.48,3.47C744,743.21,748.74,748.93,754,755.23Zm-27.13-36.78a6.41,6.41,0,0,1-1.24,0c-2.47-.4-3.53.42-3.29,3.1s0,5.56,0,8.34c0,.92-.18,1.93,1.28,1.92,3,0,6,.05,8.77-1.35a7.28,7.28,0,0,0,3.91-7.13c-.56-3.25-3-4.21-5.78-4.6C729.47,718.56,728.33,718.55,726.89,718.45Z"/><path class="cls-1" d="M1052.66,720c-5.66-1.54-11.38-2.82-17.36-2.51-9,.48-14.42,5.92-15.06,15.3-.59,8.87,4.35,15.48,12.79,17.1,8.87,1.69,9.39,1.27,9.39-7.57,0-6.36,0-6.36,6.45-6.36,4.22,0,4.22,0,4.22,4.24,0,4,0,8.07,0,12.11,0,1.32-.28,2.12-1.72,2.39-7.88,1.48-15.78,2.24-23.74.83-12.32-2.18-19.09-10.54-18.74-23.06.32-11,8.35-19.19,20.26-20.54a86.27,86.27,0,0,1,20.12.52c2.87.34,4.39,1.26,3.74,4.38C1052.84,717.76,1053.27,718.83,1052.66,720Z"/><path class="cls-1" d="M51.45,627c0-9.1.06-18.21-.05-27.32,0-1.91.46-2.49,2.4-2.4,3.51.17,7,.12,10.56,0,1.66-.06,2.07.54,2.07,2.13q-.09,27.64,0,55.28c0,1.78-.55,2.33-2.3,2.28-3.52-.11-7-.15-10.56,0-1.92.08-2.16-.75-2.15-2.36C51.48,645.45,51.45,636.24,51.45,627Z"/><path class="cls-1" d="M645.17,733.9c0-6.22.08-12.43,0-18.64,0-2.07.38-2.85,2.67-2.82q13.83.21,27.66,0c2.37,0,2.68.91,2.65,2.9s0,3.29-2.71,3.18c-5.59-.21-11.19,0-16.78-.11-2.08,0-3,.4-2.81,2.69a50,50,0,0,1,0,7.14c-.1,1.7.56,2.11,2.13,2.08,4.25-.09,8.5,0,12.74-.05,2.08,0,3.55-.23,3.62,2.86.08,3.35-1.63,3.06-3.78,3-4.14,0-8.28.06-12.43,0-1.74-.05-2.37.46-2.28,2.25.14,2.9.13,5.8,0,8.7-.07,1.7.59,2.08,2.16,2.06,6.31-.08,12.64.14,18.95-.12,2.7-.11,2.8,1.08,2.71,3.07-.08,1.77.34,3.3-2.55,3.24-9.84-.21-19.68-.13-29.52,0-1.92,0-2.47-.52-2.43-2.43C645.24,746.53,645.17,740.21,645.17,733.9Z"/><path class="cls-1" d="M347.52,756.19c-3.53,0-7-.49-10.52-.85-2.16-.22-3.27-.81-3.13-3.37.24-4.4.06-4.45,4.13-3.25a36,36,0,0,0,11,1.62,11.76,11.76,0,0,0,4.82-1c4.12-1.94,4.6-6.15,1-8.87-2.51-1.87-5.46-3-8.27-4.24A44.58,44.58,0,0,1,339,732c-3.28-2.38-5.5-5.42-5-9.69.49-4.43,3.26-7.28,7.19-9,6.05-2.67,12.38-1.8,18.67-1.22.62.05,1.22.21,1.84.31a4.61,4.61,0,0,1,3.32,6.46c-.58,1.21-1.46.36-2.12.2-3.72-.91-7.44-1.78-11.32-1.58a10.22,10.22,0,0,0-3.64.68c-3.9,1.66-4.37,5.13-1,7.65a41.06,41.06,0,0,0,7.71,4,55.55,55.55,0,0,1,8.72,4.71c3.6,2.48,5.71,5.78,5.16,10.24s-3.44,7.62-7.58,9.47S352.09,756.19,347.52,756.19Z"/><path class="cls-1" d="M377.31,392.38l.9.67Z"/><path class="cls-1" d="M728.83,615.05c5.52,10.85,2.55,25.92-6,31.83-5.8,4-16.32,4.19-22.15.42-1-.64-2.06-1-.67-2.47C709.56,635,719.09,625.12,728.83,615.05Z"/><path class="cls-1" d="M690.84,627.19c.07-12.22,5.89-20.25,16.08-22.49,5-1.1,9.83-.12,14.44,2,1.58.74,2,1.34.6,2.83q-13.5,13.89-26.84,27.93c-1.33,1.4-1.82,1.1-2.47-.47A29.92,29.92,0,0,1,690.84,627.19Z"/><path class="cls-1" d="M309.68,633.7c5.39-7.84,10.35-15.05,15.47-22.51.82,1.35.47,2.56.48,3.68,0,5.58,0,11.16,0,16.74,0,1.28-.08,2.15-1.76,2.12C319.39,633.64,314.86,633.7,309.68,633.7Z"/><path class="cls-1" d="M120.8,627c0-6.21.12-12.41-.07-18.61-.07-2.43.73-3,3-2.85,4.74.25,9.49,0,14.25.48,12,1.16,16.58,10.23,17.34,18.62a26.69,26.69,0,0,1-1.42,11c-2.83,8.35-8.48,12.37-18.14,12.75-4.23.16-8.48,0-12.72.14-1.78.06-2.29-.55-2.27-2.29C120.85,639.81,120.8,633.4,120.8,627Z"/><path class="cls-1" d="M220,614.82c0-2.48.05-5,0-7.45,0-1.29.32-1.88,1.73-1.82,3.41.16,6.83-.15,10.22.51,4.72.91,6.93,2.68,7.52,6.19a10.16,10.16,0,0,1-5,10c-4.17,2.3-8.77,2.09-13.33,2.11-1.29,0-1.13-.91-1.13-1.73Q220,618.71,220,614.82Z"/><path class="cls-1" d="M437.26,725.31c3.83,7.25,2.16,17.78-3.34,22.29-4.78,3.91-13,3.91-18-.14Z"/><path class="cls-1" d="M412.15,742.32c-4.92-10.16-.57-21.89,8.82-24.46a15.2,15.2,0,0,1,10.82,1.27c1.13.54,1.7.94.53,2.15C425.64,728.18,419,735.14,412.15,742.32Z"/><path class="cls-1" d="M575,733.6c0-4.35,0-8.7,0-13,0-1.28.06-2.2,1.76-2.13,4.33.16,8.69-.18,13,.8a11.76,11.76,0,0,1,8.47,7.07c2.45,5.47,2,10.88-.63,16.15-2.5,5-7.12,6.29-12.18,6.57-2.79.16-5.59,0-8.38.11-1.73.08-2.07-.64-2-2.18C575,742.5,575,738.05,575,733.6Z"/><path class="cls-1" d="M878.16,717.41c9,0,14.75,6.27,14.82,16.27s-5.67,16.55-14.47,16.66c-9.08.11-15-6.37-15-16.47S869.22,717.46,878.16,717.41Z"/><path class="cls-1" d="M796.29,742.57v-1.85c0-5.18.37-5.5,5.55-4.44a12.53,12.53,0,0,1,6.08,2.85,5.46,5.46,0,0,1,2,5.51c-.49,2.25-2.16,3.41-4.32,3.89a41.62,41.62,0,0,1-7.06.6c-1.74.08-2.42-.46-2.26-2.24C796.39,745.46,796.29,744,796.29,742.57Z"/><path class="cls-1" d="M796.29,724.51c0-6.43,0-6.46,6.41-5.85,2.55.24,5,.77,5.57,3.87a6.25,6.25,0,0,1-3.88,6.68c-.19.08-.39.14-.58.21C797.77,731.74,796.29,730.77,796.29,724.51Z"/><path class="cls-1" d="M948.53,725c0-6.89,0-6.89,7-6.34,4.45.35,6.56,1.83,6.89,4.84.38,3.57-1.86,6.56-5.77,7.72C949.61,733.23,948.53,732.39,948.53,725Z"/><path class="cls-1" d="M726.89,718.45c1.44.1,2.58.11,3.7.27,2.81.39,5.22,1.35,5.78,4.6a7.28,7.28,0,0,1-3.91,7.13c-2.77,1.4-5.77,1.35-8.77,1.35-1.46,0-1.27-1-1.28-1.92,0-2.78.19-5.58,0-8.34s.82-3.5,3.29-3.1A6.41,6.41,0,0,0,726.89,718.45Z"/><path class="cls-1" d="M442.43,283c0,20,0,40,.05,60,0,2.48-.5,3.42-3.2,3.36-8.6-.17-17.2-.13-25.8,0-2.13,0-2.82-.56-2.82-2.76q.1-60.6,0-121.18c0-2.08.45-2.87,2.71-2.83q13.2.18,26.41,0c2.33,0,2.69.84,2.68,2.89C442.4,242.61,442.43,262.81,442.43,283Z"/></svg>
